<?xml version="1.0" standalone="no"?>
<!DOCTYPE svg PUBLIC "-//W3C//DTD SVG 20010904//EN"
 "http://www.w3.org/TR/2001/REC-SVG-20010904/DTD/svg10.dtd">
<svg version="1.0" xmlns="http://www.w3.org/2000/svg"
 width="265.000000pt" height="265.000000pt" viewBox="0 0 265.000000 265.000000"
 preserveAspectRatio="xMidYMid meet">
<metadata>
Created by potrace 1.14, written by Peter Selinger 2001-2017
</metadata>
<g transform="translate(0.000000,265.000000) scale(0.100000,-0.100000)"
fill="#000000" stroke="none">
<path d="M1290 2240 c-170 -30 -240 -240 -144 -432 52 -104 118 -154 191 -145
64 7 110 48 157 140 34 65 40 88 44 157 3 61 0 91 -13 127 -19 48 -73 116
-109 135 -31 17 -86 25 -126 18z"/>
<path d="M1085 1696 c-188 -61 -247 -127 -266 -297 -10 -91 -10 -91 17 -131
64 -91 201 -186 321 -221 206 -61 437 -1 594 154 l71 70 -4 97 c-3 86 -7 104
-34 152 -39 69 -106 121 -204 159 -119 46 -106 54 -162 -93 -27 -72 -51 -132
-54 -135 -9 -8 1 141 10 162 7 15 2 17 -49 17 -51 0 -56 -2 -49 -17 8 -21 19
-171 11 -163 -3 3 -30 64 -60 135 -30 71 -59 130 -63 132 -5 1 -40 -8 -79 -21z"/>
<path d="M675 1154 c-62 -50 -85 -63 -100 -57 -11 4 -48 7 -82 7 -52 1 -65 -3
-88 -24 -39 -36 -55 -73 -55 -123 0 -87 73 -152 161 -144 85 7 139 68 139 156
0 34 6 44 48 79 l47 40 58 -54 c105 -98 267 -175 405 -192 l57 -7 3 -57 c3
-56 2 -58 -42 -100 -51 -50 -65 -97 -47 -158 14 -47 69 -97 116 -106 45 -8
117 18 145 53 58 74 38 188 -40 228 -28 15 -30 19 -30 74 0 64 6 71 61 71 47
0 209 57 278 97 36 21 92 63 125 94 l60 56 53 -40 c51 -38 53 -41 53 -87 0
-112 118 -183 220 -132 128 64 96 264 -45 280 -26 2 -64 -1 -85 -8 l-38 -13
-73 58 c-41 32 -79 62 -85 67 -7 5 -44 -25 -100 -80 -67 -66 -108 -97 -164
-124 -206 -101 -408 -102 -610 -2 -79 39 -109 62 -177 131 -46 45 -84 83 -85
83 -2 -1 -39 -30 -83 -66z"/>
</g>
</svg>
